<svg xmlns="http://www.w3.org/2000/svg" viewBox="0 0 1000 1000" width="1000" height="1000">
  
  <g id="executive_broad" opacity="1.0">
    <!-- 1. Central Top Spire -->
    <polygon points="500,210 364.3,431.2 500,505 635.7,431.2" 
             fill="#000000" stroke="#FFFFFF" stroke-width="16" stroke-linejoin="round"/>
    
    <!-- 2. Upper Left Wing -->
    <polygon points="500,210 270,380 364.3,431.2" 
             fill="#000000" stroke="#FFFFFF" stroke-width="16" stroke-linejoin="round"/>
    
    <!-- 3. Upper Right Wing -->
    <polygon points="500,210 635.7,431.2 730,380" 
             fill="#000000" stroke="#FFFFFF" stroke-width="16" stroke-linejoin="round"/>
    
    <!-- 4. Lower Left Flank -->
    <polygon points="270,380 270,585 500,505 364.3,431.2" 
             fill="#000000" stroke="#FFFFFF" stroke-width="16" stroke-linejoin="round"/>
    
    <!-- 5. Lower Right Flank -->
    <polygon points="730,380 635.7,431.2 500,505 730,585" 
             fill="#000000" stroke="#FFFFFF" stroke-width="16" stroke-linejoin="round"/>

    <!-- Left Amber/Gold Blade -->
    <path d="M 500,505 L 270,585 L 500,810 L 500,657 A 32 32 0 0 1 500,593 L 500,505 Z" 
          fill="#1A1A1A" stroke="#FFFFFF" stroke-width="16" stroke-linejoin="round"/>

    <!-- Right Amber/Gold Blade -->
    <path d="M 500,505 L 500,593 A 32 32 0 0 1 500,657 L 500,810 L 730,585 L 500,505 Z" 
          fill="#000000" stroke="#FFFFFF" stroke-width="16" stroke-linejoin="round"/>

    <!-- Breather Hole Ring (Clean Negative Space) -->
    <circle cx="500" cy="625" r="32" fill="#FFFFFF"/>
    
    <!-- Cryptographic Verification Node -->
    <circle cx="500" cy="625" r="14" fill="#000000"/>

    <!-- Vertical Ink Slit -->
    <line x1="500" y1="657" x2="500" y2="810" stroke="#FFFFFF" stroke-width="16" stroke-linecap="square"/>
    
    
  </g>
</svg>