<svg xmlns="http://www.w3.org/2000/svg" viewBox="0 0 512 512" width="100%" height="100%">
  <!-- 60% PUTIH BERSIH: Latar Belakang & Ruang Negatif Lapang -->
  <rect width="512" height="512" fill="#FFFFFF"/>

  <!-- VARIASI 5: THE AUDITOR'S NEEDLE SPEAR (Minimalis Monolitik - Rasio 1 : 2.1) -->
  <g transform="translate(0, 0)">
    <!-- 30% DEEP NAVY: Bilah Sayap Atas Menjulang Tinggi -->
    <!-- Bilah Kiri Atas -->
    <path d="M 251 45 L 251 228 C 240 234 232 245 230 258 L 175 258 L 220 150 Z" fill="#0B192C"/>
    <!-- Bilah Kanan Atas -->
    <path d="M 261 45 L 261 228 C 272 234 280 245 282 258 L 337 258 L 292 150 Z" fill="#0B192C"/>

    <!-- 10% EMERALD GREEN: Bilah Panah Bawah Meruncing Tajam -->
    <!-- Bilah Kiri Bawah -->
    <path d="M 230 262 C 232 274 240 284 251 290 L 251 475 L 205 320 L 225 262 Z" fill="#10B981"/>
    <!-- Bilah Kanan Bawah -->
    <path d="M 282 262 C 280 274 272 284 261 290 L 261 475 L 307 320 L 287 262 Z" fill="#10B981"/>

    <!-- Titik Inti Putih Bersih (Single Source of Truth) -->
    <circle cx="256" cy="260" r="14" fill="#FFFFFF"/>
  </g>
</svg>
