<svg xmlns="http://www.w3.org/2000/svg" viewBox="0 0 512 512" width="100%" height="100%">
  <!-- Transparent Canvas (Ideal for Watermark / PDF / Custom Banners) -->
  <g transform="translate(0, 0)">
    <!-- 30% DEEP NAVY: Faset Puncak & Sayap Samping Geometris -->
    <polygon points="256,45 304,140 256,182 208,140" fill="#0B192C"/>
    <polygon points="200,150 156,225 204,310 248,192" fill="#0B192C"/>
    <polygon points="312,150 356,225 308,310 264,192" fill="#0B192C"/>

    <!-- 10% SOFT WARM AMBER: Mata Pena Bawah dengan Celah Tinta & Lubang Nafas -->
    <path d="M 252 202 L 220 310 L 252 468 L 252 289 A 14 14 0 0 1 252 261 L 252 202 Z" fill="#F59E0B"/>
    <path d="M 260 202 L 260 261 A 14 14 0 0 1 260 289 L 260 468 L 292 310 L 260 202 Z" fill="#F59E0B"/>

    <!-- Lubang Nafas Pena Transparan dengan Border -->
    <circle cx="256" cy="275" r="14" fill="#FFFFFF"/>
    <circle cx="256" cy="275" r="6" fill="#0B192C"/>
  </g>
</svg>
